<?xml version="1.0" encoding="UTF-8"?>
<!DOCTYPE svg PUBLIC "-//W3C//DTD SVG 1.1//EN" "http://www.w3.org/Graphics/SVG/1.1/DTD/svg11.dtd">
<!-- Creator: CorelDRAW 2021 (64-Bit) -->
<svg xmlns="http://www.w3.org/2000/svg" xml:space="preserve" width="120px" height="120px" version="1.1" style="shape-rendering:geometricPrecision; text-rendering:geometricPrecision; image-rendering:optimizeQuality; fill-rule:evenodd; clip-rule:evenodd"
viewBox="0 0 120 120"
 xmlns:xlink="http://www.w3.org/1999/xlink"
 xmlns:xodm="http://www.corel.com/coreldraw/odm/2003">
 <defs>
  <style type="text/css">
   <![CDATA[
    .fil1 {fill:url(#id0)}
    .fil2 {fill:url(#id1)}
    .fil4 {fill:url(#id2)}
    .fil0 {fill:url(#id3)}
    .fil3 {fill:url(#id4)}
   ]]>
  </style>
  <linearGradient id="id0" gradientUnits="userSpaceOnUse" x1="23.21" y1="81.35" x2="23.21" y2="111.82">
   <stop offset="0" style="stop-opacity:1; stop-color:skyblue"/>
   <stop offset="1" style="stop-opacity:1; stop-color:#231F20"/>
  </linearGradient>
  <linearGradient id="id1" gradientUnits="userSpaceOnUse" xlink:href="#id0" x1="83.61" y1="83.28" x2="83.61" y2="117.84">
  </linearGradient>
  <linearGradient id="id2" gradientUnits="userSpaceOnUse" xlink:href="#id0" x1="61.74" y1="49.91" x2="61.74" y2="93.83">
  </linearGradient>
  <linearGradient id="id3" gradientUnits="userSpaceOnUse" x1="60.01" y1="46.97" x2="60.01" y2="146.64">
   <stop offset="0" style="stop-opacity:1; stop-color:skyblue"/>
   <stop offset="0.729412" style="stop-opacity:1; stop-color:#557786"/>
   <stop offset="1" style="stop-opacity:1; stop-color:#231F20"/>
  </linearGradient>
  <linearGradient id="id4" gradientUnits="userSpaceOnUse" xlink:href="#id0" x1="46.82" y1="83.28" x2="46.82" y2="117.84">
  </linearGradient>
 </defs>
 <g id="Layer_x0020_1">
  <metadata id="CorelCorpID_0Corel-Layer"/>
  <g id="_1959598034384">
   <path class="fil0" d="M0 0l120 0 0 120 -120 0 0 -120zm8.11 8.11l103.78 0 0 103.78 -103.78 0 0 -103.78z"/>
   <path class="fil1" d="M12.8 66.98l0 36.7 20.81 -18.35 -1.52 -1.34 -19.29 -17.01z"/>
   <path class="fil2" d="M107.2 66.98l0 41.63 -19.29 0 -27.91 0 27.91 -24.62 19.29 -17.01z"/>
   <path class="fil3" d="M54.46 108.61l-13.75 0 -27.91 0 27.91 -24.62 19.29 -17.01 19.29 17.01 1.54 1.36 -26.37 23.26z"/>
   <path class="fil4" d="M60.88 47.45c-0.27,-0.79 0.13,-2.06 1.24,-1.55 1.47,0.42 0.09,2.95 -1.24,1.55zm3.56 -3.71c-0.08,-0.83 0.67,-1.77 1.38,-0.85 0.79,1.03 -0.64,1.47 -1.38,0.85zm-7.16 7.16c-0.31,-1.36 1.33,-2.52 2.01,-1.01 0.58,1.36 -1.19,1.9 -2.01,1.01zm10.92 -10.76c-0.25,-0.75 0.61,-1.02 1.04,-0.43 -0.11,0.67 -0.48,0.83 -1.04,0.43zm-0.43 14.36c-0.61,-1.69 1.67,-2.7 2.08,-1.03 0.13,0.52 -0.34,0.97 -0.74,1.21 -0.58,0.35 -0.8,0.17 -1.34,-0.18zm4.18 -17.96c-0.61,-1.24 1.38,0.46 0,0zm-0.12 3.6c-0.25,-0.59 0.21,-0.77 0.7,-0.55 0.27,0.54 -0.3,0.7 -0.7,0.55zm-16.14 16.29c0.9,1.27 -0.57,2.58 -1.82,1.67 -0.73,-1.69 1.04,-2.77 1.82,-1.67zm-8.86 4.92c-0.48,-1.73 1.71,-2.43 2.05,-0.97 0.48,1.15 -1.09,2.05 -2.05,0.97zm28.68 -24.89c0,-0.75 0.75,0.24 0,0zm-3.48 -3.49c0,-0.75 0.74,0.25 0,0zm-3.68 3.6c0.16,-1.4 1.37,0.46 0,0zm-4.02 10.76c-0.17,-1.03 0.65,-2.02 1.66,-1.12 0.4,1.4 -0.6,1.93 -1.66,1.12zm0.34 -7.08c-0.21,-0.94 0.81,-1.45 1.13,-0.5 0.22,0.79 -0.7,0.77 -1.13,0.5zm-15.94 16.53c0.87,1.09 -0.96,1.99 -1.82,1.08 -0.32,-1.26 0.87,-2.23 1.82,-1.08zm-12.2 7.9c-0.16,-1.19 1.25,-1.98 1.7,-0.63 0.38,1.15 -1.09,1.29 -1.7,0.63zm13.86 -10.3c-0.33,-1.44 1.34,-2.31 1.95,-0.86 0.52,1.23 -1.25,1.6 -1.95,0.86zm-9.76 -10.92c-0.2,-1.04 1.05,0.45 0,0zm15.2 9.95c0.48,1.21 -1.11,1.85 -1.96,1.13 -0.55,-1.47 1.34,-2.73 1.96,-1.13zm5.13 -9.6c-0.17,-0.99 0.95,-1.99 1.54,-0.84 0.53,1.03 -0.86,1.56 -1.54,0.84zm-5.21 5.91c0.69,1.05 -0.97,2.07 -1.84,1.21 -0.39,-1.17 1,-2.5 1.84,-1.21zm1.61 -2.38c-0.15,-1.15 1.11,-2.29 1.82,-0.9 0.54,1.27 -1.06,1.73 -1.82,0.9zm21.64 -7.4c0,-0.75 0.74,0.24 0,0zm-14.67 14.67c-0.95,-1.7 1.56,-2.78 1.95,-1.08 0.28,1.19 -1.11,1.7 -1.95,1.08zm3.48 -3.71c-0.35,-1.04 0.8,-2.28 1.61,-1.18 0.81,1.11 -0.68,2.1 -1.61,1.18zm3.68 -3.68c-0.09,-1.52 1.62,-1.28 1.39,-0.25 -0.17,0.77 -0.95,0.69 -1.39,0.25zm3.75 -3.68c0.07,-0.63 0.57,-0.94 0.89,-0.19 -0.23,0.39 -0.51,0.55 -0.89,0.19zm-14.59 14.36c-0.4,-1.49 1.68,-2.87 2.28,-1.19 0.51,1.44 -1.35,2.19 -2.28,1.19zm10.72 -7.08c-0.4,-1.2 1.24,-2.02 1.64,-0.72 0.34,1.1 -1.02,1.33 -1.64,0.72zm3.75 -3.68c-0.12,-0.84 0.97,-1.38 1.09,-0.41 0.1,0.76 -0.7,0.71 -1.09,0.41zm7.67 -7.27c-0.08,0.07 -0.17,0.09 -0.27,0.03 0.05,-0.24 0.19,-0.27 0.27,-0.03zm-3.91 3.67c-0.03,-1.04 1.21,0.24 0,0zm-38.79 17.81c-0.35,-1.09 0.83,-2.2 1.55,-1.05 0.7,1.11 -0.71,1.58 -1.55,1.05zm19.24 -1.28c0.73,1.21 -0.97,2.62 -2.13,1.36 -0.48,-1.62 1.26,-2.8 2.13,-1.36zm16.03 -20.13c0.29,-0.92 1.11,0.51 0,0zm-3.72 3.72c-0.09,-0.57 0.15,-1.01 0.78,-0.85 0.61,0.75 0.04,1.44 -0.78,0.85zm-14.47 10.68c-0.23,-1.41 1.34,-2.64 2.16,-1.16 0.69,1.23 -1,2.49 -2.16,1.16zm10.79 -6.92c-0.26,-0.81 0.29,-2.04 1.25,-1.27 0.98,0.78 -0.27,2.02 -1.25,1.27zm-7.16 3.59c-0.44,-1.04 0.89,-2.65 1.78,-1.46 0.94,1.25 -0.7,2.49 -1.78,1.46zm18.51 -14.63c-0.09,0.08 -0.18,0.09 -0.27,0.04 0.04,-0.24 0.19,-0.28 0.27,-0.04zm-29.08 28.45c-0.33,-1.35 1.16,-2.63 2.08,-1.21 0.91,1.41 -1.1,2.31 -2.08,1.21zm5.58 -4.8c0.76,1.22 -0.91,2.65 -2.05,1.44 -0.59,-1.66 1.23,-2.76 2.05,-1.44zm1.39 -2.09c-0.47,-1.57 1.25,-2.74 2.09,-1.39 0.77,1.23 -0.91,2.69 -2.09,1.39zm7.01 -7.08c-0.24,-1.31 1.47,-2.49 1.94,-0.96 0.43,1.39 -1.08,1.87 -1.94,0.96zm-3.45 3.68c-0.66,-1.76 1.3,-2.74 2.05,-1.36 0.65,1.18 -0.97,2.45 -2.05,1.36zm7.32 -10.73c-0.21,-0.87 0.16,-1.18 1.01,-1.08 0.47,0.88 0.02,1.74 -1.01,1.08zm-13.7 -7.27c0.07,-0.47 0.49,-0.92 0.81,-0.27 -0.1,0.48 -0.45,0.61 -0.81,0.27zm3.56 -3.57c0.54,-0.84 0.9,0.41 0,0zm-27.87 24.47c-0.5,-1.43 1.81,0.6 0,0zm31.51 -27.95c0,-0.75 0.74,0.24 0,0zm-17.66 17.65c-0.13,-2.12 1.96,0.75 0,0zm6.93 -7.08c0.09,-0.61 0.44,-0.97 0.93,-0.31 -0.18,0.53 -0.45,0.76 -0.93,0.31zm-10.41 10.57c-0.14,-2.13 1.96,0.75 0,0zm-3.48 3.48c-0.15,-2.13 1.96,0.76 0,0zm10.45 -10.45c-0.04,-0.61 0.43,-1.2 0.89,-0.51 -0.06,0.62 -0.35,0.81 -0.89,0.51zm-13.9 10.26c-0.01,-1.57 1.41,0.94 0,0zm17.61 -20.95c0,-0.75 0.75,0.26 0,0zm-3.52 3.53c-0.05,-0.29 0.12,-0.45 0.39,-0.31 0.04,0.31 -0.09,0.41 -0.39,0.31zm-3.48 3.48c-0.2,-1.01 1.09,0.46 0,0zm10.8 -10.57c-0.08,0.08 -0.18,0.09 -0.27,0.04 0.05,-0.24 0.18,-0.28 0.27,-0.04zm3.17 0.08c0,-0.75 0.75,0.25 0,0zm-27.13 34.49c0.37,0.9 -0.65,0.91 -1.13,0.58 -0.07,-0.85 0.45,-1.26 1.13,-0.58zm20.01 -27.52c0.43,-1.29 0.9,0.9 0,0zm-6.97 7.04c-0.49,-1.42 1.82,0.61 0,0zm-3.52 3.45c0,-1.56 1.4,0.94 0,0zm-3.48 3.48c0,-1.55 1.4,0.93 0,0zm17.53 -17.46c0,-1.13 0.92,0.65 0,0zm-7.01 7.09c-0.06,-0.53 0.13,-0.61 0.62,-0.39 0,0.42 -0.19,0.63 -0.62,0.39zm-6.09 13.47c0.36,0.81 -0.54,1.03 -1.11,0.7 -0.28,-0.88 0.74,-1.53 1.11,-0.7zm9.15 -6.31c-0.36,-1.06 1.25,-1.75 1.51,-0.52 0.22,1.08 -0.97,0.96 -1.51,0.52zm7.08 -7.01c-0.06,-0.74 0.73,-1.54 1.2,-0.59 0.42,0.84 -0.69,0.98 -1.2,0.59zm-10.56 10.49c-0.09,-1.06 1.29,-1.77 1.52,-0.52 0.19,1.09 -1,0.96 -1.52,0.52zm7.04 -6.88c-0.18,-1.05 0.55,-1.65 1.36,-0.82 0.24,0.97 -0.6,1.32 -1.36,0.82zm6.93 -3.68c-0.02,-0.75 0.85,-1.42 1.25,-0.52 0.47,1.04 -0.76,0.91 -1.25,0.52zm0.27 -3.45c-0.09,-0.43 -0.02,-0.97 0.58,-0.74 0.58,0.58 0.1,1.05 -0.58,0.74zm-17.73 17.5c-0.08,-1.06 1.3,-1.78 1.53,-0.52 0.19,1.09 -1,0.95 -1.53,0.52zm13.86 -10.46c-0.08,-0.89 0.96,-1.87 1.45,-0.74 0.51,1.19 -0.71,1.37 -1.45,0.74zm11.04 -10.72c-0.22,-1.11 1,0.47 0,0zm-3.72 3.56c0.08,-0.71 0.41,-0.75 0.89,-0.27 -0.21,0.46 -0.44,0.68 -0.89,0.27zm0.19 -3.52c-0.61,-1.22 1.38,0.46 0,0zm-3.52 0.04c0.14,-1.24 1.09,0.39 0,0zm-3.64 3.48c0.05,-0.33 0.49,-1.19 0.85,-0.38 0.26,0.59 -0.48,0.77 -0.85,0.38zm7.24 -7.08c-0.09,-0.27 0.25,-0.23 0.35,-0.04 -0.11,0.1 -0.22,0.11 -0.35,0.04zm-30.69 30.91c0.61,0.73 -0.48,1.27 -1.05,0.68 -0.09,-0.64 0.48,-1.38 1.05,-0.68zm10.54 -10.35c0.36,0.81 -0.54,1.03 -1.1,0.69 -0.29,-0.87 0.73,-1.52 1.1,-0.69zm9.15 -2.6c-0.16,-0.5 -0.33,-0.91 0.16,-1.31 0.46,-0.36 1.16,-0.29 1.39,0.31 0.55,1.05 -0.8,1.54 -1.55,1zm14.52 -18c0.05,-0.23 0.2,-0.28 0.27,-0.04 -0.08,0.08 -0.17,0.1 -0.27,0.04zm-31.74 28.26c-0.17,-0.84 0.81,-1.65 1.13,-0.6 0.26,0.83 -0.66,0.86 -1.13,0.6zm17.38 -17.61c0.1,-1.05 1.37,-0.96 1.12,-0.1 -0.19,0.67 -0.75,0.38 -1.12,0.1zm-3.48 3.56c-0.16,-1.06 1.26,-1.28 1.18,-0.27 -0.06,0.71 -0.78,0.69 -1.18,0.27zm-3.45 3.6c-0.17,-0.85 0.83,-1.6 1.13,-0.6 0.26,0.83 -0.65,0.86 -1.13,0.6zm4.4 8.91c1.64,0.85 0.12,2.98 -1.3,1.85 -0.33,-0.82 0.16,-2.44 1.3,-1.85zm12.48 1.77c-0.41,-1.4 0.97,-2.76 1.97,-1.51 0.98,1.22 -0.74,2.86 -1.97,1.51zm21.25 17.15c-0.26,-1.02 1.07,-1.88 1.44,-0.73 0.37,0.97 -0.8,1.33 -1.44,0.73zm10.73 -10.72c0.49,-1.51 1.29,1.03 0,0zm3.75 -3.53c0.01,-0.75 0.74,0.25 0,0zm-7.47 7.17c-0.02,-0.67 0.39,-1.3 1.07,-0.74 0.76,0.63 -0.34,1.33 -1.07,0.74zm10.95 -3.68c0,-0.76 0.75,0.25 0,0zm-3.56 0.08c-0.57,-1.15 1.34,0.45 0,0zm-10.91 10.6c-0.12,-0.78 0.71,-1.66 1.29,-0.77 0.68,1.04 -0.66,1.3 -1.29,0.77zm3.56 -3.4c-0.25,-1.24 1.27,-1.45 1.28,-0.41 0.01,0.76 -0.83,0.8 -1.28,0.41zm3.56 -3.72c0.14,-0.85 1.17,-0.83 0.98,-0.07 -0.15,0.61 -0.67,0.38 -0.98,0.07zm3.64 -0.08c0.41,-1.22 1.31,0.84 0,0zm-7.01 -6.85c0.21,-1.97 1.53,1.01 0,0zm-3.75 3.6c-0.26,-0.79 0.86,-1.47 1.27,-0.65 0.44,0.89 -0.69,1.29 -1.27,0.65zm-3.61 3.68c-0.3,-1.09 0.67,-2.08 1.52,-1.03 0.82,1.02 -0.7,1.84 -1.52,1.03zm-3.63 -0.08c-0.04,-0.67 -0.02,-1.38 0.85,-1.48 0.48,-0.05 0.91,0.26 1.04,0.7 0.41,1.33 -1.14,1.59 -1.89,0.78zm14.75 -10.8c0.01,-0.75 0.73,0.25 0,0zm-7.55 10.8c-0.27,-1.29 1.47,-1.7 1.47,-0.54 0.26,0.96 -0.94,1.04 -1.47,0.54zm-3.6 3.45c-0.03,-0.57 -0.1,-0.99 0.5,-1.28 0.54,-0.2 1.19,0.13 1.23,0.74 0.07,1.09 -1.13,1.2 -1.73,0.54zm8.36 -7.59c-0.11,0.76 -0.55,1.01 -1.12,0.43 0.06,-0.73 0.59,-1 1.12,-0.43zm-11.85 7.66c-0.27,-1.11 1.2,-2.27 1.71,-0.92 0.56,1.14 -0.96,1.67 -1.71,0.92zm18.43 -14.4c-0.08,0.08 -0.17,0.1 -0.27,0.04 0.05,-0.24 0.19,-0.28 0.27,-0.04zm-3.95 3.57c0.14,-1.03 1.19,0.53 0,0zm-10.95 3.83c-0.1,-0.8 0.53,-1.88 1.38,-1 0.9,0.94 -0.52,1.71 -1.38,1zm14.32 6.66c0.2,-1.71 1.43,1.07 0,0zm-3.56 3.64c-0.11,-0.75 0.25,-0.96 0.93,-0.7 0.17,0.7 -0.27,1.27 -0.93,0.7zm-0.08 -3.57c0.07,-0.91 1.22,-1.02 1.1,-0.18 -0.1,0.76 -0.7,0.49 -1.1,0.18zm-3.41 7.05c-0.09,-0.58 0.16,-0.98 0.78,-0.85 0.53,0.8 0.07,1.24 -0.78,0.85zm-0.11 -3.44c-0.11,-0.78 0.42,-1.38 1.16,-0.78 0.3,0.99 -0.45,1.2 -1.16,0.78zm11.22 -7.13c-0.13,-0.02 -0.25,-0.05 -0.38,-0.08 -0.06,-0.16 0.47,-0.69 0.38,0.08zm3.49 -0.15c-0.08,0.08 -0.17,0.09 -0.27,0.04 0.04,-0.25 0.19,-0.28 0.27,-0.04zm-18.31 3.91c-0.18,-0.84 0.67,-1.92 1.35,-0.93 0.64,0.95 -0.62,1.62 -1.35,0.93zm-2.9 -24.74c-0.01,-0.75 0.74,0.24 0,0zm-18.28 14.56c-0.51,-1.49 1.01,-2.77 1.94,-1.55 0.93,1.22 -0.74,2.81 -1.94,1.55zm14.52 -10.96c0,-0.84 0.97,-0.72 0.83,-0.11 -0.11,0.45 -0.56,0.35 -0.83,0.11zm-18.08 14.28c-0.42,-1.61 1.59,-2.64 2.25,-1 0.49,1.25 -1.23,2.16 -2.25,1zm21.72 -14.28c-0.15,-1.21 1.19,0.41 0,0zm-18.23 14.28c-0.35,-2.03 1.89,-2.34 2.2,-0.96 0.51,1.25 -1.2,2.09 -2.2,0.96zm22.14 -17.96c-0.09,0.08 -0.17,0.09 -0.27,0.04 0.05,-0.24 0.19,-0.28 0.27,-0.04zm-18.51 11.15c-0.51,-1.37 1.02,-2.75 1.9,-1.28 0.66,1.11 -0.89,2.27 -1.9,1.28zm3.45 -0.19c-0.12,-1.04 0.8,-2.21 1.73,-1.12 0.4,0.47 0.22,1.07 -0.24,1.42 -0.54,0.41 -1.02,0.1 -1.49,-0.3zm-3.6 3.52c-0.16,-1.08 0.23,-1.63 1.35,-1.74 1.89,0.99 0.11,3.39 -1.35,1.74zm7.35 -7.12c-0.21,-1.05 0.69,-1.45 1.4,-0.7 -0.11,0.97 -0.54,1.31 -1.4,0.7zm0.27 -7.16c-0.25,-0.81 0.62,-0.8 0.89,-0.2 -0.2,0.43 -0.5,0.54 -0.89,0.2zm-3.75 3.67c-0.21,-1.04 0.68,-1.45 1.39,-0.69 -0.1,0.97 -0.53,1.31 -1.39,0.69zm-0.11 3.61c-0.26,-1.04 0.94,-2.1 1.58,-0.9 0.51,1.07 -0.89,1.61 -1.58,0.9zm-3.64 -0.01c-0.2,-1.37 1.52,-2.2 1.91,-0.65 0.31,1.24 -1.26,1.34 -1.91,0.65zm-10.57 7.09c-0.42,-1.54 1.28,-2.79 2.17,-1.32 0.74,1.24 -1,2.62 -2.17,1.32zm21.83 -17.96c0,-0.75 0.74,0.24 0,0zm-14.67 14.67c-0.26,-0.65 -0.5,-1.31 0.2,-1.79 0.51,-0.35 1.1,-0.26 1.51,0.21 1.04,1.19 -0.54,2.39 -1.71,1.58zm10.8 -7.47c-0.41,-1.21 1.42,-1.11 1.04,-0.12 -0.16,0.51 -0.75,0.41 -1.04,0.12zm3.75 -3.6c-0.14,-1.21 1.19,0.41 0,0zm3.91 -3.68c-0.08,0.08 -0.17,0.09 -0.27,0.04 0.05,-0.24 0.19,-0.28 0.27,-0.04zm-22.1 18.08c-0.49,-1.61 1.24,-2.76 2.09,-1.4 0.76,1.23 -0.92,2.69 -2.09,1.4zm28.65 -3.95c-0.03,-1.04 1.2,0.24 0,0zm-3.64 0c0.08,-0.72 0.56,-0.93 0.89,-0.2 -0.24,0.4 -0.52,0.56 -0.89,0.2zm-14.33 10.99c-0.67,-1.23 0.78,-2.7 1.67,-1.39 0.85,1.26 -0.61,1.99 -1.67,1.39zm18.08 -14.59c0.01,-0.75 0.74,0.24 0,0zm-14.67 11.03c-0.44,-1.26 0.85,-2.54 1.76,-1.19 0.74,1.08 -0.87,2 -1.76,1.19zm7.32 -7.31c-0.09,-0.58 0.31,-1.31 0.9,-0.72 0.7,0.69 -0.32,1.1 -0.9,0.72zm-3.68 3.75c-0.29,-0.94 0.58,-2.2 1.42,-1.09 0.73,0.96 -0.64,1.69 -1.42,1.09zm7.16 -0.27c-0.07,-0.49 0.23,-1.25 0.85,-0.77 0.72,0.56 -0.17,1.28 -0.85,0.77zm7.67 -7.28c-0.09,0.08 -0.18,0.09 -0.28,0.04 0.05,-0.24 0.2,-0.28 0.28,-0.04zm-11.31 7.36c-0.04,-0.76 0.59,-1.66 1.22,-0.8 0.67,0.91 -0.53,1.34 -1.22,0.8zm-7.24 7.08c-0.31,-1.28 1.17,-2.38 1.87,-0.99 0.63,1.26 -1.03,1.9 -1.87,0.99zm3.57 -3.48c-0.32,-1.32 0.95,-2 1.81,-0.9 -0.01,1.28 -0.84,1.63 -1.81,0.9zm11.49 -14.44c-0.08,0.08 -0.17,0.09 -0.27,0.04 0.05,-0.24 0.19,-0.29 0.27,-0.04zm-22.06 14.55c-0.15,-0.6 -0.3,-1.19 0.31,-1.58 0.58,-0.37 1.39,-0.3 1.75,0.34 0.75,1.36 -1.15,2.25 -2.06,1.24zm18.27 -14.48c0,-0.75 0.74,0.25 0,0zm-11.11 7.4c-0.45,-1.34 1.06,-1.86 1.7,-0.62 -0.16,0.95 -0.96,1.33 -1.7,0.62zm-3.72 3.48c-0.2,-1.26 1.39,-2.51 2.11,-1 0.62,1.33 -1.28,1.88 -2.11,1zm11.07 -7.27c-0.26,-0.82 0.62,-0.81 0.89,-0.2 -0.21,0.43 -0.5,0.54 -0.89,0.2zm3.64 0c-0.03,-1.05 1.21,0.24 0,0zm-7.24 0.11c-0.4,-1.21 1.42,-1.11 1.05,-0.12 -0.17,0.51 -0.76,0.41 -1.05,0.12zm-0.15 3.56c-0.19,-1.03 1.12,-1.7 1.39,-0.51 0.21,0.9 -0.9,1 -1.39,0.51zm-8.84 13.16c0.41,1.17 -1.02,1.61 -1.77,0.85 -0.11,-0.57 -0.26,-1.26 0.54,-1.47 0.55,-0.2 1.04,0.09 1.23,0.62zm5.16 -9.48c-0.15,-0.71 -0.19,-1.28 0.63,-1.56 0.5,-0.17 0.93,0.11 1.15,0.55 0.56,1.18 -1.01,1.8 -1.78,1.01zm-3.52 3.6c-0.26,-0.88 -0.25,-1.49 0.74,-1.82 0.59,-0.2 1.07,0.11 1.23,0.7 0.53,1.22 -1.15,1.88 -1.97,1.12zm-37.24 -21.6c-0.08,0.08 -0.17,0.09 -0.27,0.04 0.04,-0.25 0.19,-0.28 0.27,-0.04zm26.82 25.04c-0.42,-1.12 0.07,-1.89 1.28,-1.82 1.64,0.98 0.04,3.09 -1.28,1.82zm-27.17 -21.44c-0.22,-1.05 1.05,0.45 0,0zm35.96 20.14c0.69,1.18 -0.79,2.23 -1.78,1.34 -0.61,-1.35 0.94,-2.78 1.78,-1.34zm-3.44 3.95c0.09,1.11 -1.16,1.34 -1.82,0.64 -0.38,-1.47 1.71,-2.13 1.82,-0.64zm-1.86 -2.65c-0.4,-1.06 0.01,-1.74 1.16,-1.85 1.78,0.94 0.17,3.15 -1.16,1.85zm-23.46 10.33c-0.19,0 -0.39,-0.09 -0.62,-0.26 -0.2,-1.09 0.9,-1.33 1.26,-0.31l-0.64 0.57zm4.06 -4.62c0.26,0.31 0.28,0.66 0.11,0.93l-0.36 0.32c-0.06,0.03 -0.14,0.06 -0.22,0.08 -0.42,0.1 -0.59,-0.17 -0.92,-0.42 -0.09,-0.79 0.63,-1.81 1.39,-0.91zm-7.2 7.18c0.01,0.07 0.01,0.13 0.01,0.2l-0.59 0.52c-0.07,-0.03 -0.15,-0.08 -0.23,-0.14 -0.07,-0.56 0.31,-0.88 0.81,-0.58zm11.03 -10.31c0.3,1.27 -1.23,1.36 -1.89,0.64 -0.15,-1.37 1.53,-2.17 1.89,-0.64zm3.44 -3.88c0.75,1.24 -0.9,2.24 -1.85,1.27 -0.48,-1.33 0.99,-2.7 1.85,-1.27zm3.69 -3.42c0.59,1.24 -1.11,2.37 -2.21,1.12 -0.39,-1.49 1.47,-2.69 2.21,-1.12zm3.48 0c0.59,1.24 -1.11,2.37 -2.2,1.12 -0.39,-1.49 1.46,-2.69 2.2,-1.12zm23.73 17.85c-0.13,0.65 -0.47,0.6 -0.89,0.27 0.05,-0.5 0.67,-0.94 0.89,-0.27zm3.6 -3.68c-0.04,0.62 -0.35,1.14 -1.04,0.74 -0.56,-0.84 0.38,-1.27 1.04,-0.74zm-7.93 3.98c0.15,-1.9 1.5,1.01 0,0zm-2.67 -0.26c-0.08,0.18 -0.16,0.32 -0.27,0.38l-0.53 -0.47c0.1,-0.26 0.52,-0.19 0.8,0.09zm9.56 0.19c0.06,-0.5 0.72,-0.85 0.93,-0.23 -0.15,0.69 -0.51,0.58 -0.93,0.23zm-2.48 -4.03c0.16,0.83 -0.38,1.31 -1.08,0.78 -0.26,-0.76 0.42,-1.3 1.08,-0.78zm-3.81 -0.19c0.9,0.33 0.16,1.55 -0.68,1.05 -0.3,-0.44 0.04,-1.29 0.68,-1.05zm-10.01 -3.4c0.39,0.88 -0.32,1.49 -1.1,1.13l-0.2 -0.17c-0.27,-0.93 0.44,-1.71 1.3,-0.96zm3.66 -3.44c0.66,1.2 -0.92,1.82 -1.72,0.96 -0.16,-1.02 1,-2.28 1.72,-0.96zm3.57 0.2c0.59,1.14 -1.14,1.48 -1.81,0.76 -0.12,-1.26 1.13,-2.11 1.81,-0.76zm-3.67 3.39c0.48,1.13 -0.8,1.25 -1.43,0.81 -0.12,-0.88 0.82,-2 1.43,-0.81zm3.33 3.72c0.19,0.83 -0.71,0.73 -1.16,0.38 0,-0.77 1,-1.38 1.16,-0.38zm3.73 -3.37c0,0.95 -1.05,1 -1.56,0.42 -0.28,-1.31 1.55,-1.7 1.56,-0.42zm-3.67 -0.45c0.66,0.91 -0.64,1.62 -1.34,0.91 -0.28,-0.9 0.68,-1.81 1.34,-0.91zm-3.55 3.85c0.07,0.58 -0.32,0.69 -0.69,0.6l-0.45 -0.4c-0.03,-0.76 1.04,-1.04 1.14,-0.2zm-27.48 -24.58c-0.02,1 -0.85,1.8 -1.74,0.89 -0.34,-1.29 0.86,-1.99 1.74,-0.89zm-24.82 17.71c0.07,0.72 -0.7,0.49 -1,0.29 0,-0.67 0.91,-1.2 1,-0.29zm2.53 -6.71c0.12,-0.85 1.03,-0.82 0.88,-0.14 -0.11,0.51 -0.57,0.43 -0.88,0.14zm-6.23 6.92c-0.17,0.33 -0.5,0.12 -0.7,-0.07 0.09,-0.67 0.86,-0.6 0.7,0.07zm2.74 -3.52c0.09,-0.84 1.11,-0.65 0.84,0.01 -0.19,0.46 -0.58,0.25 -0.84,-0.01zm20.6 -9.98c-0.34,-1.04 0.68,-2.18 1.52,-1.1 0.74,0.94 -0.7,1.88 -1.52,1.1zm-6.93 3.29c-0.07,-1.06 1.24,-1.77 1.5,-0.53 0.22,1.04 -0.97,0.97 -1.5,0.53zm3.48 -3.49c-0.06,-1.07 1.29,-1.77 1.52,-0.52 0.2,1.09 -0.99,0.96 -1.52,0.52zm-6.89 7.05c-0.3,-1.23 1.35,-1.71 1.4,-0.62 0.26,0.88 -0.9,1.08 -1.4,0.62zm-2.52 -4.38c0.29,0.64 -0.03,1.13 -0.73,0.74 -0.05,-0.69 0.08,-0.85 0.73,-0.74zm-3.5 10.27c0.99,0.5 -0.02,1.57 -0.83,1.04 -0.16,-0.58 0.02,-1.44 0.83,-1.04zm23.33 -19.71c-0.35,-1.04 0.68,-2.17 1.52,-1.1 0.75,0.97 -0.69,1.9 -1.52,1.1zm-20.79 17.22c-0.26,-0.76 0.73,-1.7 1.25,-0.75 0.55,1.01 -0.66,1.23 -1.25,0.75zm-5.75 6.63c0.03,0.81 -0.92,0.29 -1.14,0.11 0.14,-0.74 1.12,-1.01 1.14,-0.11zm3.48 -6.96c-0.06,0.75 -0.76,0.47 -1.14,0.18 0.06,-0.97 1.22,-1.13 1.14,-0.18zm13.49 -27.93c-0.08,0.08 -0.17,0.1 -0.27,0.04 0.05,-0.24 0.19,-0.27 0.27,-0.04zm3.49 -3.48c-0.09,0.08 -0.18,0.09 -0.27,0.04 0.04,-0.24 0.19,-0.28 0.27,-0.04zm-6.91 44.79c0.67,0.36 0,1.1 -0.6,0.81 -0.27,-0.43 0.06,-1.1 0.6,-0.81zm10.39 -48.27c-0.08,0.08 -0.17,0.09 -0.27,0.04 0.05,-0.25 0.19,-0.28 0.27,-0.04zm-27.87 27.87c-0.08,0.08 -0.17,0.09 -0.27,0.04 0.04,-0.25 0.19,-0.28 0.27,-0.04zm13.59 -10.34c-0.22,-1.05 1.05,0.46 0,0zm-17.07 13.82c-0.09,0.08 -0.18,0.09 -0.28,0.04 0.05,-0.24 0.2,-0.28 0.28,-0.04zm6.96 -6.97c-0.08,0.08 -0.17,0.1 -0.27,0.04 0.05,-0.24 0.19,-0.28 0.27,-0.04zm6.97 -6.96c-0.08,0.08 -0.17,0.09 -0.27,0.03 0.05,-0.23 0.19,-0.27 0.27,-0.03zm-3.48 3.48c-0.08,0.08 -0.17,0.09 -0.28,0.04 0.05,-0.24 0.2,-0.28 0.28,-0.04zm-0.43 7.16c-0.18,-1.42 1.46,0.59 0,0zm-3.48 3.48c-0.16,-1.22 1.37,0.38 0,0zm10.33 -6.85c-0.14,-2.12 1.96,0.75 0,0zm-13.82 10.26c0.28,-1.52 0.91,0.91 0,0zm10.53 -13.94c-0.22,-1.05 1.05,0.46 0,0zm-6.58 6.66c0.04,0.32 -0.09,0.42 -0.38,0.31 -0.07,-0.29 0.11,-0.44 0.38,-0.31zm3.1 -3.17c-0.22,-1.05 1.05,0.46 0,0zm-10.41 10.41c-0.01,-0.75 0.74,0.25 0,0zm3.83 -3.75c0.04,0.31 -0.09,0.41 -0.39,0.31 -0.06,-0.29 0.11,-0.45 0.39,-0.31zm13.9 -17.23c-0.09,0.08 -0.18,0.09 -0.28,0.04 0.05,-0.24 0.2,-0.28 0.28,-0.04zm-3.06 34.8c-0.26,0.51 -0.59,0.58 -1.05,0.27 -0.18,-0.86 0.75,-1.01 1.05,-0.27zm17.72 -14.71c0.84,1.13 -0.71,2.62 -1.81,1.44 -0.45,-1.24 0.91,-2.66 1.81,-1.44zm-3.52 3.74c0.64,1.2 -0.85,1.92 -1.7,1.1 -0.3,-1.1 0.97,-2.47 1.7,-1.1zm0.12 -3.58c0.75,1.19 -0.76,2.02 -1.78,1.39 -0.73,-1.66 1.01,-2.61 1.78,-1.39zm4.96 -5.73c-0.35,-1.3 1.21,-2.78 2.12,-1.2 0.7,1.19 -1,2.48 -2.12,1.2zm-15.72 16.57c0.35,1.01 -0.83,0.89 -1.32,0.54 -0.3,-0.9 1.07,-1.51 1.32,-0.54zm3.62 -3.52c0.43,1.17 -0.98,1.12 -1.57,0.69 -0.36,-1.1 1.13,-1.91 1.57,-0.69zm3.62 -3.64c0.49,1.17 -0.9,1.65 -1.71,1.08 -0.2,-0.65 -0.37,-1.19 0.35,-1.59 0.57,-0.24 1.07,-0.04 1.36,0.51zm7.04 -7.2c0.73,1.15 -0.85,2.46 -1.93,1.39 -0.6,-1.61 1.13,-2.67 1.93,-1.39zm1.51 4.76c-0.31,-1.1 0.18,-1.82 1.36,-1.75 1.71,0.99 -0.04,3.18 -1.36,1.75zm-8.65 6.17c0.26,1.03 -1.04,1.2 -1.61,0.6 -0.21,-1.2 1.27,-1.95 1.61,-0.6zm3.4 -0.34c0.5,1.05 -0.73,1.67 -1.48,0.98 -0.21,-0.91 0.93,-2.1 1.48,-0.98zm10.71 -10.67c0.79,1.24 -0.88,2.68 -2.09,1.31 -0.33,-1.42 1.26,-2.61 2.09,-1.31zm-14.28 14.36c0.07,0.8 -0.5,1.18 -1.21,0.74 -0.26,-1.06 0.4,-1.4 1.21,-0.74zm7.25 -7.21c0.82,1.24 -0.97,1.7 -1.8,1.13 -0.3,-1.14 0.95,-2.41 1.8,-1.13zm-14.37 11.16c-0.37,0.36 -0.54,0.4 -0.97,0.11 -0.19,-0.85 0.82,-1.1 0.97,-0.11zm-1.28 -13.67c-0.15,-1.21 1.39,-1.86 1.65,-0.53 0.22,1.11 -1.09,1.12 -1.65,0.53zm4.8 9.55c0.63,0.79 -0.51,1.45 -1.16,0.83 -0.31,-0.72 0.57,-1.55 1.16,-0.83zm-3.18 -6.84c0.43,1.08 -0.89,1.53 -1.58,0.89 -0.3,-1.28 0.64,-1.83 1.58,-0.89zm-7.32 6.85c0.2,0.83 -0.06,1.2 -0.96,0.9 -0.17,-0.58 0.29,-1.57 0.96,-0.9zm3.72 -3.32c0.46,1.12 -0.87,1.11 -1.43,0.65 -0.14,-0.93 0.87,-1.68 1.43,-0.65zm-3.52 0.04c-0.05,0.76 -0.55,1.23 -1.24,0.69 -0.24,-1.02 0.46,-1.33 1.24,-0.69zm3.4 -3.69c0.77,0.91 -0.52,1.46 -1.27,0.94 -0.17,-0.82 0.51,-1.83 1.27,-0.94zm7.15 -3.65c0.41,0.47 0.2,1.23 -0.31,1.5 -0.6,0.31 -0.88,0 -1.34,-0.36 -0.22,-0.96 0.77,-2.16 1.65,-1.14zm-3.47 7.45c0.31,1.1 -1.05,1.07 -1.59,0.5 -0.17,-1.24 1.57,-1.63 1.59,-0.5zm3.47 -3.81c0.64,1.11 -0.82,1.85 -1.61,1.02 -0.33,-1.08 0.92,-2.25 1.61,-1.02zm-7.37 6.9c0.85,0.61 -0.19,1.48 -0.94,0.98 -0.14,-0.62 0.18,-1.53 0.94,-0.98zm10.93 -10.5c0.76,1.13 -0.73,2.1 -1.68,1.29 -0.43,-1.16 0.81,-2.57 1.68,-1.29zm-1.76 -2.34c-0.28,-1.24 1.2,-2.28 1.86,-0.93 0.59,1.26 -1.11,1.76 -1.86,0.93zm3.52 -3.37c-0.53,-1.71 1.86,-2.22 1.9,-0.81 0.41,1.13 -1.25,1.48 -1.9,0.81zm1.97 2.51c0,1.02 -0.97,2.06 -2.01,1.01 -0.54,-1.54 1.08,-2.66 2.01,-1.01z"/>
  </g>
 </g>
</svg>
